# xmcd
#
# Track frame offsets:
#	150
#	27593
#	50246
#	72991
#	84245
#	106008
#	135428
#	147209
#	160226
#	172379
#	183535
#
# Disc length: 2610 seconds
#
# Revision: 1
# Processed by: cddbd v1.5.2PL0 Copyright (c) Steve Scherf et al.
# Submitted via: audiograbber 1.82.02
#
DISCID=9c0a300b
DTITLE=rrc - rrc1
DYEAR=2006
DGENRE=
TTITLE0=a
TTITLE1=b
TTITLE2=h
TTITLE3=jk
TTITLE4=hg
TTITLE5=hg
TTITLE6=hg
TTITLE7=g
TTITLE8=mk
TTITLE9=jfg
TTITLE10=oié
EXTD=
EXTT0=
EXTT1=
EXTT2=
EXTT3=
EXTT4=
EXTT5=
EXTT6=
EXTT7=
EXTT8=
EXTT9=
EXTT10=
PLAYORDER=
